<svg width='18' height='18'>
    <path fill="currentColor" d="M11.8125,2.25 L9,2.25 C9,1.00898438 7.99101563,0 6.75,0 C5.50898437,0 4.5,1.00898438 4.5,2.25 L1.6875,2.25 C0.755859375,2.25 0,3.00585938 0,3.9375 L0,16.3125 C0,17.2441406 0.755859375,18 1.6875,18 L11.8125,18 C12.7441406,18 13.5,17.2441406 13.5,16.3125 L13.5,3.9375 C13.5,3.00585938 12.7441406,2.25 11.8125,2.25 Z M3.375,14.90625 C2.90742188,14.90625 2.53125,14.5300781 2.53125,14.0625 C2.53125,13.5949219 2.90742188,13.21875 3.375,13.21875 C3.84257812,13.21875 4.21875,13.5949219 4.21875,14.0625 C4.21875,14.5300781 3.84257812,14.90625 3.375,14.90625 Z M3.375,11.53125 C2.90742188,11.53125 2.53125,11.1550781 2.53125,10.6875 C2.53125,10.2199219 2.90742188,9.84375 3.375,9.84375 C3.84257812,9.84375 4.21875,10.2199219 4.21875,10.6875 C4.21875,11.1550781 3.84257812,11.53125 3.375,11.53125 Z M3.375,8.15625 C2.90742188,8.15625 2.53125,7.78007813 2.53125,7.3125 C2.53125,6.84492187 2.90742188,6.46875 3.375,6.46875 C3.84257812,6.46875 4.21875,6.84492187 4.21875,7.3125 C4.21875,7.78007813 3.84257812,8.15625 3.375,8.15625 Z M6.75,1.40625 C7.21757813,1.40625 7.59375,1.78242188 7.59375,2.25 C7.59375,2.71757812 7.21757813,3.09375 6.75,3.09375 C6.28242187,3.09375 5.90625,2.71757812 5.90625,2.25 C5.90625,1.78242188 6.28242187,1.40625 6.75,1.40625 Z M11.25,14.34375 C11.25,14.4984375 11.1234375,14.625 10.96875,14.625 L5.90625,14.625 C5.7515625,14.625 5.625,14.4984375 5.625,14.34375 L5.625,13.78125 C5.625,13.6265625 5.7515625,13.5 5.90625,13.5 L10.96875,13.5 C11.1234375,13.5 11.25,13.6265625 11.25,13.78125 L11.25,14.34375 Z M11.25,10.96875 C11.25,11.1234375 11.1234375,11.25 10.96875,11.25 L5.90625,11.25 C5.7515625,11.25 5.625,11.1234375 5.625,10.96875 L5.625,10.40625 C5.625,10.2515625 5.7515625,10.125 5.90625,10.125 L10.96875,10.125 C11.1234375,10.125 11.25,10.2515625 11.25,10.40625 L11.25,10.96875 Z M11.25,7.59375 C11.25,7.7484375 11.1234375,7.875 10.96875,7.875 L5.90625,7.875 C5.7515625,7.875 5.625,7.7484375 5.625,7.59375 L5.625,7.03125 C5.625,6.8765625 5.7515625,6.75 5.90625,6.75 L10.96875,6.75 C11.1234375,6.75 11.25,6.8765625 11.25,7.03125 L11.25,7.59375 Z">
    </path>
</svg>