<svg viewBox="0 0 18 18"><path fill='currentColor' d="M9.875,4.78125 L9.875,0 L2.84375,0 C2.37617187,0 2,0.376171875 2,0.84375 L2,17.15625 C2,17.6238281 2.37617187,18 2.84375,18 L14.65625,18 C15.1238281,18 15.5,17.6238281 15.5,17.15625 L15.5,5.625 L10.71875,5.625 C10.2546875,5.625 9.875,5.2453125 9.875,4.78125 Z M15.5,4.28554688 L15.5,4.5 L11,4.5 L11,0 L11.2144531,0 C11.4394531,0 11.6539063,0.087890625 11.8121094,0.24609375 L15.2539062,3.69140625 C15.4121094,3.84960938 15.5,4.0640625 15.5,4.28554688 Z M12.8978179,11.9612867 C12.9803754,12.0064478 13.017442,12.0999958 12.9921693,12.1887052 C12.8051514,12.7645095 12.4867156,13.2838623 12.0705586,13.7145059 C12.0065345,13.7822476 11.9037589,13.7967636 11.8212015,13.7516025 L11.1034571,13.3548298 C10.8001849,13.6016031 10.4531066,13.7935378 10.0790709,13.9209567 L10.0790709,14.7145021 C10.0790709,14.8048243 10.0133619,14.8838563 9.92069536,14.9032111 C9.33268416,15.029017 8.69918213,15.0354686 8.08084371,14.9032111 C7.98817719,14.8838563 7.9224682,14.8048243 7.9224682,14.7145021 L7.9224682,13.9209567 C7.54674758,13.7951507 7.19966934,13.603216 6.89808193,13.3548298 L6.18033761,13.7516025 C6.09946501,13.7967636 5.99500457,13.7806347 5.93098043,13.7145059 C5.5148235,13.2822494 5.19638764,12.7628966 5.00936976,12.1887052 C4.98241222,12.1016087 5.01947883,12.0080607 5.10203628,11.9628996 L5.8197806,11.5661269 C5.74733223,11.1919348 5.74733223,10.8080652 5.8197806,10.4338731 L5.10203628,10.0371004 C5.01947883,9.99193929 4.98072738,9.89839126 5.00936976,9.81129481 C5.19638764,9.23549054 5.5148235,8.71613766 5.93098043,8.28549413 C5.99500457,8.21775245 6.09778016,8.20323638 6.18033761,8.2483975 L6.89639709,8.64517019 C7.19966934,8.39839693 7.54674758,8.20646217 7.92078335,8.0790433 L7.92078335,7.28549791 C7.92078335,7.19517567 7.98649234,7.11614371 8.07915886,7.09678894 C8.66717006,6.97098297 9.30067209,6.96453138 9.91901051,7.09678894 C10.011677,7.11614371 10.077386,7.19517567 10.077386,7.28549791 L10.077386,8.0774304 C10.4531066,8.20323638 10.8001849,8.39517113 11.1017723,8.64355729 L11.8195166,8.2467846 C11.9003892,8.20162348 12.0048496,8.21775245 12.0688738,8.28388123 C12.4850307,8.71613766 12.8034666,9.23549054 12.9904845,9.80968192 C13.017442,9.89677836 12.9803754,9.9903264 12.8978179,10.0354875 L12.1800736,10.4322602 C12.252522,10.8064523 12.252522,11.1903219 12.1800736,11.564514 L12.8978179,11.9612867 Z M8.99908469,12.2887048 C9.7421017,12.2887048 10.3469614,11.7096747 10.3469614,10.9983871 C10.3469614,10.2870995 9.7421017,9.7080694 8.99908469,9.7080694 C8.25606767,9.7080694 7.65120802,10.2870995 7.65120802,10.9983871 C7.65120802,11.7096747 8.25606767,12.2887048 8.99908469,12.2887048 Z"/></svg>